<?xml version="1.0" standalone="no"?>
<!DOCTYPE svg PUBLIC "-//W3C//DTD SVG 20010904//EN"
 "http://www.w3.org/TR/2001/REC-SVG-20010904/DTD/svg10.dtd">
<svg version="1.0" xmlns="http://www.w3.org/2000/svg"
 width="1024.000000pt" height="1024.000000pt" viewBox="0 0 1024.000000 1024.000000"
 preserveAspectRatio="xMidYMid meet">

<g transform="translate(0.000000,1024.000000) scale(0.100000,-0.100000)"
fill="#000000" stroke="none">
<path d="M4755 8655 c-420 -42 -854 -169 -1239 -362 -396 -198 -824 -535
-1111 -873 -307 -363 -574 -845 -702 -1268 -113 -377 -158 -693 -157 -1107 0
-380 34 -633 129 -970 235 -836 757 -1560 1465 -2032 482 -321 1006 -513 1585
-579 206 -23 589 -24 785 0 953 113 1793 579 2391 1327 700 875 954 2042 683
3136 -69 282 -140 481 -249 708 -439 912 -1248 1607 -2201 1888 -218 65 -481
115 -714 136 -153 14 -503 12 -665 -4z m760 -64 c72 -5 143 -13 158 -20 15 -6
102 -27 192 -46 659 -142 1279 -490 1765 -991 372 -384 658 -856 815 -1344 45
-142 119 -445 139 -571 46 -289 48 -762 5 -1059 -45 -310 -131 -624 -256 -930
-155 -379 -425 -775 -747 -1095 -329 -327 -641 -544 -1051 -733 -251 -115
-661 -229 -965 -268 -168 -21 -580 -30 -751 -15 -535 47 -1046 207 -1464 459
-380 229 -738 545 -993 875 -404 523 -640 1094 -729 1762 -22 166 -25 712 -5
880 35 293 140 698 242 930 131 302 180 392 334 624 324 487 771 888 1301
1166 232 122 579 250 810 300 66 14 167 37 225 50 176 42 565 52 975 26z"/>
<path d="M4930 7870 c-110 -13 -275 -49 -355 -77 -269 -96 -544 -288 -714
-497 -249 -307 -365 -633 -365 -1026 0 -170 11 -252 55 -409 34 -122 33 -121
101 -121 69 0 70 2 33 115 -34 104 -54 223 -57 330 l-3 90 95 0 95 0 2 -55 c8
-175 54 -427 81 -437 13 -5 102 16 102 24 0 3 -9 39 -19 81 -24 96 -39 204
-43 307 l-3 80 200 0 200 0 11 -155 c7 -85 12 -156 13 -157 3 -9 37 0 71 17
l39 20 -6 140 -6 140 246 0 246 0 83 56 c142 97 128 59 128 344 l0 246 158 17
c86 9 191 26 232 37 47 12 89 17 116 13 53 -7 94 3 94 22 0 8 23 29 50 46 28
17 48 35 45 40 -6 9 -53 23 -150 45 -33 7 -70 16 -83 20 -21 6 -23 4 -20 -22
3 -25 -2 -30 -32 -40 -53 -18 -213 -43 -317 -50 l-93 -7 0 352 c0 197 4 351 9
351 21 0 132 -84 166 -125 45 -56 133 -196 159 -253 11 -23 22 -41 26 -40 3 2
23 22 44 45 l37 42 -26 52 c-15 29 -53 92 -85 141 -33 48 -55 88 -50 88 41 0
250 -143 346 -235 l35 -34 44 22 c47 23 54 37 30 57 -9 7 -13 15 -10 18 2 3
40 -19 84 -47 l79 -52 66 12 c39 6 66 16 66 23 0 16 -151 130 -252 191 -153
92 -361 167 -553 200 -110 19 -343 27 -445 15z m115 -203 c0 -42 -2 -199 -3
-348 l-2 -272 -92 7 c-115 9 -282 33 -325 47 l-32 10 25 67 c62 169 188 383
283 481 47 48 117 93 136 87 6 -1 10 -37 10 -79z m-292 1 c-68 -76 -191 -301
-240 -438 -24 -70 -31 -80 -52 -80 -25 0 -211 84 -211 95 0 4 26 39 59 78 69
85 186 198 262 254 128 93 231 145 182 91z m-442 -166 c-5 -10 -17 -25 -27
-32 -9 -8 -43 -47 -76 -87 -32 -40 -64 -73 -70 -73 -13 0 -48 30 -48 41 0 14
203 168 223 169 4 0 3 -8 -2 -18z m-270 -263 c16 -11 29 -26 29 -33 0 -7 -20
-50 -45 -97 -91 -169 -152 -353 -188 -574 -19 -117 -26 -140 -40 -139 -9 0
-51 1 -93 2 l-77 2 7 63 c24 215 91 403 213 592 59 92 146 205 156 205 5 0 22
-9 38 -21z m215 -133 c38 -18 93 -41 122 -51 29 -9 56 -23 59 -30 2 -8 -4 -47
-15 -87 -37 -135 -81 -421 -82 -530 0 -5 -90 -8 -200 -8 l-200 0 0 29 c0 65
41 262 75 361 41 118 149 350 163 350 6 0 41 -15 78 -34z m429 -135 c50 -11
150 -25 223 -32 l132 -12 0 -262 0 -263 -277 -4 c-153 -2 -284 -2 -292 1 -11
3 -12 22 -7 90 10 126 33 272 62 394 30 124 19 118 159 88z"/>
<path d="M6495 7605 c-22 -8 -42 -15 -44 -15 -2 0 -59 -54 -125 -119 l-121
-120 -110 -3 c-108 -3 -110 -2 -113 20 -5 32 -48 30 -74 -4 -21 -25 -22 -26
-139 -22 l-119 3 -34 -40 c-19 -22 -34 -40 -33 -41 1 -1 45 -11 97 -23 121
-26 301 -74 317 -84 9 -6 -22 -47 -100 -133 l-112 -125 -94 3 c-88 2 -95 1
-113 -22 -11 -14 -16 -26 -11 -28 107 -39 148 -61 151 -81 2 -12 7 -19 10 -17
4 2 42 9 84 15 l76 10 115 118 c78 80 119 115 126 108 6 -6 27 -82 47 -170 20
-88 38 -162 40 -164 1 -2 23 14 48 34 l46 37 0 94 c0 82 3 96 20 111 24 21 27
73 5 73 -12 0 -15 18 -15 98 l0 99 86 84 c159 154 183 186 191 250 5 34 2 45
-12 56 -23 16 -39 16 -90 -2z"/>
<path d="M6410 7146 c0 -23 -5 -57 -11 -74 -10 -28 -5 -44 44 -154 80 -180
120 -319 133 -459 l7 -70 -94 3 -94 3 -7 69 c-9 96 -29 206 -36 206 -3 0 -27
-21 -53 -46 -44 -44 -46 -47 -39 -87 4 -23 10 -63 14 -89 l6 -48 -204 0 -203
0 -7 116 c-4 64 -10 123 -13 130 -9 25 -29 15 -70 -34 l-40 -47 5 -83 5 -82
-83 0 -83 0 -59 -60 -59 -59 143 -3 143 -3 -3 -75 c-4 -100 -29 -306 -48 -400
-10 -48 -14 -97 -10 -135 8 -82 -7 -129 -61 -186 -44 -47 -44 -48 -21 -54 12
-3 43 -2 67 2 37 7 46 13 54 38 5 17 11 32 13 34 11 12 254 -92 254 -109 0
-12 -32 -57 -93 -132 l-39 -48 75 0 75 0 42 58 c24 31 45 59 46 61 5 5 74 -48
74 -57 -1 -18 -141 -152 -205 -195 l-40 -27 -5 27 -5 28 -193 3 -192 2 0 34
c0 30 4 34 43 46 93 28 157 79 157 127 0 17 -11 18 -141 18 -166 0 -173 4
-167 93 l4 53 64 32 c65 32 99 70 87 99 -4 13 -12 14 -44 5 -71 -19 -281 51
-364 120 -23 20 -29 32 -25 49 3 12 1 26 -4 29 -7 4 -8 24 -4 51 7 48 -6 74
-36 74 -31 0 -43 -28 -46 -107 -4 -91 -11 -100 -110 -147 -104 -50 -173 -68
-249 -65 -72 3 -80 -1 -71 -29 11 -34 56 -70 107 -87 l49 -17 0 -68 c0 -67 -1
-69 -27 -74 -101 -20 -173 -28 -219 -23 -31 3 -56 1 -60 -4 -10 -16 43 -87 78
-105 18 -10 53 -22 78 -29 42 -11 45 -13 45 -46 l0 -34 -190 0 -190 0 1 -37
c1 -21 -2 -38 -6 -38 -29 0 -270 211 -270 236 0 19 69 69 80 58 5 -5 26 -33
48 -63 l39 -55 59 3 c32 1 62 6 66 10 5 4 -19 42 -52 85 -33 43 -60 82 -60 85
0 14 212 101 245 101 8 0 18 -12 21 -27 4 -16 12 -31 18 -35 15 -11 124 -10
130 1 3 4 -6 21 -20 37 -42 47 -64 87 -64 117 l0 27 -88 -44 c-131 -66 -288
-131 -388 -162 -49 -14 -94 -31 -101 -36 -7 -5 -16 -7 -20 -5 -10 6 -131 -17
-140 -27 -19 -19 193 -245 325 -344 188 -142 364 -223 622 -288 111 -28 124
-29 350 -29 225 0 240 2 350 29 153 38 264 78 383 137 371 184 672 532 800
924 55 169 79 324 80 529 1 234 -43 437 -142 651 -53 114 -132 245 -148 245
-9 0 -13 -15 -13 -44z m-134 -968 c-9 -136 -38 -281 -81 -407 -37 -110 -110
-271 -124 -271 -4 0 -48 17 -97 39 -49 21 -113 46 -142 55 -40 14 -52 22 -48
34 35 115 73 359 82 530 l7 122 205 0 205 0 -7 -102z m310 25 c-19 -216 -62
-387 -137 -543 -55 -116 -165 -290 -183 -290 -6 0 -28 15 -50 33 l-38 33 29
59 c106 210 183 510 183 709 0 34 3 66 7 69 3 4 49 7 101 7 l94 0 -6 -77z"/>
<path d="M5585 6614 c-491 -411 -1064 -756 -1482 -893 -324 -106 -596 -119
-723 -35 -107 71 -135 241 -63 394 14 30 32 71 39 90 l15 35 -35 -40 c-47 -53
-113 -171 -142 -251 -78 -215 43 -422 274 -466 89 -17 308 -3 427 26 103 26
247 72 306 99 405 184 735 394 1024 651 182 161 483 467 458 465 -4 0 -48 -34
-98 -75z"/>
<path d="M4419 4370 c-5 -3 -10 -93 -11 -200 l-3 -195 -220 0 -220 0 -3 198
-2 197 -125 0 -125 0 0 -525 c0 -493 1 -525 18 -526 50 -2 228 3 232 8 3 2 5
98 5 211 l0 207 218 3 217 2 0 -213 0 -214 123 -6 c67 -3 125 -2 130 2 4 4 6
241 5 527 l-3 519 -114 5 c-62 3 -117 3 -122 0z"/>
<path d="M5220 4370 l-425 -5 -3 -102 -3 -103 168 -2 168 -3 0 -415 0 -415
128 -3 127 -3 0 420 0 420 168 -2 167 -2 0 110 0 110 -35 0 c-19 1 -226 -2
-460 -5z"/>
<path d="M5788 4369 c-2 -5 -2 -56 0 -114 l3 -106 155 3 c118 2 154 0 154 -9
0 -21 13 -15 55 28 22 23 52 49 66 59 l25 19 62 -55 c40 -36 66 -53 74 -47 7
4 83 8 168 8 l155 0 3 99 c2 62 -1 103 -8 110 -13 13 -908 18 -912 5z"/>
<path d="M6097 4034 c-78 -76 -145 -143 -149 -149 -9 -12 -11 -125 -2 -125 3
0 69 61 147 135 78 74 144 135 148 135 4 0 71 -61 150 -135 79 -74 147 -135
152 -135 6 0 7 26 3 63 -7 61 -8 63 -89 145 -45 46 -112 111 -150 144 l-67 60
-143 -138z"/>
<path d="M6153 3872 c-71 -66 -83 -82 -83 -110 0 -17 3 -32 8 -32 4 0 32 25
62 55 98 98 89 97 178 16 42 -39 80 -71 85 -71 4 0 7 15 7 33 0 27 -12 45 -78
110 -42 42 -82 77 -87 77 -6 0 -47 -35 -92 -78z"/>
<path d="M6172 3737 l-52 -53 0 -182 0 -183 128 3 127 3 4 30 c1 17 0 98 -4
181 l-7 151 -60 51 c-33 29 -65 52 -72 52 -6 0 -35 -24 -64 -53z"/>
<path d="M3873 3174 c-177 -63 -233 -314 -100 -452 69 -72 183 -99 288 -69 50
15 129 68 129 87 0 5 -18 22 -40 40 l-40 31 -35 -27 c-78 -59 -194 -34 -234
50 -40 81 -16 185 52 226 47 29 124 27 171 -5 20 -14 41 -25 46 -25 5 0 26 17
46 37 l37 37 -33 28 c-67 56 -195 74 -287 42z"/>
<path d="M4482 3178 c-5 -7 -26 -51 -45 -98 -19 -47 -67 -156 -106 -243 -39
-88 -71 -165 -71 -173 0 -12 12 -14 53 -12 l52 3 28 58 28 57 108 0 c120 0
118 1 146 -72 l18 -48 63 0 c35 0 64 2 64 5 0 3 -33 78 -74 168 -41 89 -91
203 -111 252 -21 50 -42 96 -47 103 -6 6 -30 12 -53 12 -23 0 -47 -6 -53 -12z
m88 -218 c16 -40 30 -77 30 -81 0 -5 -29 -9 -65 -9 -36 0 -65 4 -65 10 0 5 9
33 21 62 12 29 25 64 30 77 5 13 12 22 14 19 3 -2 18 -37 35 -78z"/>
<path d="M5625 3166 c-203 -94 -217 -381 -25 -490 50 -28 63 -31 145 -31 80 0
97 3 158 32 l67 32 0 120 0 120 -37 3 c-21 2 -71 2 -110 0 l-73 -4 0 -44 0
-44 55 0 55 0 0 -44 c0 -39 -3 -45 -30 -56 -45 -19 -124 -15 -162 7 -54 32
-78 76 -78 148 0 48 5 70 23 95 49 73 146 94 226 49 l42 -23 36 36 c21 21 34
42 30 51 -3 8 -29 26 -58 41 -73 36 -190 37 -264 2z"/>
<path d="M6270 3181 c-84 -27 -151 -92 -180 -174 -39 -110 -18 -200 65 -284
107 -107 276 -112 390 -11 149 131 118 368 -60 452 -44 21 -172 31 -215 17z
m165 -120 c41 -23 73 -73 81 -127 8 -56 -26 -129 -76 -162 -46 -31 -130 -28
-179 8 -61 42 -86 135 -57 203 40 93 143 128 231 78z"/>
<path d="M4920 2915 l0 -265 50 0 c62 0 70 13 70 110 l0 71 42 -3 c41 -3 44
-6 101 -90 l59 -88 64 0 c35 0 64 4 64 10 0 5 -25 45 -55 89 -30 44 -55 83
-55 88 0 4 15 15 33 24 39 19 77 88 77 141 0 79 -52 146 -128 168 -20 5 -101
10 -179 10 l-143 0 0 -265z m277 155 c50 -18 68 -79 35 -121 -16 -19 -31 -23
-105 -27 l-85 -4 -6 53 c-4 30 -4 63 -2 74 2 11 5 23 5 28 1 11 124 8 158 -3z"/>
<path d="M3459 2471 c-20 -16 -24 -28 -24 -74 0 -71 21 -97 76 -94 39 2 39 2
39 43 0 37 -3 42 -25 46 -17 4 -25 1 -25 -8 0 -8 7 -14 15 -14 18 0 20 -21 3
-38 -20 -20 -47 -14 -53 11 -11 43 -1 109 18 121 15 9 22 7 37 -11 21 -26 30
-29 30 -9 0 35 -59 53 -91 27z"/>
<path d="M3750 2482 c-28 -8 -40 -36 -40 -94 0 -50 3 -60 25 -74 64 -42 115
34 89 133 -6 23 -49 43 -74 35z m39 -26 c7 -9 11 -38 9 -73 -2 -48 -6 -58 -22
-61 -27 -6 -46 24 -46 71 0 65 30 98 59 63z"/>
<path d="M4374 2480 c-47 -19 -32 -76 26 -100 23 -9 30 -18 28 -34 -4 -29 -38
-33 -58 -6 -22 29 -35 11 -14 -18 19 -27 54 -28 84 -4 34 28 21 65 -30 86 -28
11 -40 22 -40 36 0 28 26 36 49 16 22 -20 31 -20 31 -1 0 12 -41 38 -53 34 -1
0 -12 -4 -23 -9z"/>
<path d="M5842 2479 c-30 -11 -45 -54 -39 -108 5 -48 26 -71 62 -71 38 0 58
33 57 95 -1 76 -27 103 -80 84z m48 -29 c16 -30 8 -111 -12 -123 -29 -19 -48
9 -48 67 0 70 35 103 60 56z"/>
<path d="M6249 2476 c-42 -21 -50 -124 -12 -162 28 -28 92 -5 93 34 0 20 -27
14 -33 -8 -6 -23 -29 -26 -46 -6 -19 22 -10 117 12 130 15 9 21 6 37 -14 21
-28 37 -22 21 8 -13 25 -43 33 -72 18z"/>
<path d="M3590 2389 c0 -79 2 -90 16 -85 9 3 25 6 37 7 20 1 20 2 -3 8 -24 6
-25 11 -28 84 -4 108 -22 97 -22 -14z"/>
<path d="M3868 2418 c-5 -106 -2 -118 35 -118 62 0 98 48 62 84 -9 9 -11 17
-5 21 17 11 11 54 -9 65 -11 5 -33 10 -49 10 -30 0 -30 -1 -34 -62z m77 17 c0
-14 -8 -21 -27 -23 -24 -3 -28 0 -28 23 0 23 4 26 28 23 19 -2 27 -9 27 -23z
m-7 -54 c8 -4 12 -19 10 -32 -2 -18 -10 -25 -30 -27 -25 -3 -28 0 -28 26 0 41
17 53 48 33z"/>
<path d="M4025 2399 c-14 -44 -25 -84 -25 -90 0 -20 20 -8 26 16 5 21 12 25
40 25 27 0 34 -4 34 -19 0 -20 17 -37 27 -27 11 11 -47 176 -62 176 -9 0 -23
-29 -40 -81z m54 -6 c1 -17 -5 -23 -20 -23 -16 0 -19 4 -14 23 4 12 9 31 12
42 l6 20 8 -20 c4 -11 8 -30 8 -42z"/>
<path d="M4160 2390 c0 -87 1 -90 23 -90 12 0 29 5 37 10 12 8 9 10 -12 10
l-28 0 0 80 c0 47 -4 80 -10 80 -6 0 -10 -37 -10 -90z"/>
<path d="M4499 2464 c-7 -9 -13 -39 -12 -72 1 -45 5 -59 23 -74 51 -41 95 -5
94 77 0 29 -6 60 -13 69 -17 21 -75 21 -92 0z m69 -6 c12 -12 16 -95 6 -122
-7 -19 -35 -21 -52 -4 -7 7 -12 32 -12 56 0 69 27 101 58 70z"/>
<path d="M4640 2407 c0 -59 4 -77 18 -90 21 -19 45 -21 73 -7 16 9 19 22 19
90 0 103 -18 105 -22 3 -3 -72 -5 -78 -26 -81 -30 -5 -38 17 -41 116 -2 74
-21 46 -21 -31z"/>
<path d="M4792 2395 c3 -85 20 -118 26 -50 3 33 6 36 30 33 22 -2 28 -9 30
-33 2 -16 8 -34 12 -39 13 -13 10 146 -3 162 -5 6 -29 12 -54 12 l-44 0 3 -85z
m86 41 c7 -34 -52 -52 -60 -18 -8 29 3 43 30 40 17 -2 28 -10 30 -22z"/>
<path d="M4950 2461 c-5 -11 -10 -42 -10 -70 0 -56 23 -91 60 -91 21 0 60 33
60 50 0 19 -28 10 -33 -11 -4 -15 -12 -20 -28 -17 -29 4 -44 51 -35 103 9 45
33 56 57 26 24 -30 45 -24 24 7 -21 29 -80 31 -95 3z"/>
<path d="M5090 2394 c0 -64 3 -85 13 -82 19 7 20 168 1 168 -11 0 -14 -19 -14
-86z"/>
<path d="M5160 2395 c0 -50 4 -85 10 -85 6 0 10 28 11 63 l0 62 32 -65 c47
-94 57 -90 57 19 0 54 -4 91 -10 91 -6 0 -10 -29 -10 -67 0 -75 -7 -74 -40 10
-35 84 -50 76 -50 -28z"/>
<path d="M5326 2458 c-10 -13 -16 -43 -16 -74 0 -64 19 -85 75 -80 39 4 40 4
41 45 1 40 0 41 -30 40 -18 -1 -23 -3 -13 -6 25 -7 19 -56 -7 -62 -42 -7 -63
80 -30 127 19 27 29 28 51 3 20 -24 37 -17 23 10 -15 28 -74 26 -94 -3z"/>
<path d="M5537 2467 c-3 -7 -4 -42 -3 -77 1 -67 19 -90 24 -32 3 29 6 32 38
32 21 0 33 4 29 10 -3 6 -19 10 -36 10 -24 0 -29 4 -29 25 0 22 4 25 35 25 19
0 35 5 35 10 0 15 -87 12 -93 -3z"/>
<path d="M5660 2396 c0 -47 5 -88 10 -91 6 -4 10 10 10 34 0 38 2 41 29 41 25
0 30 -5 35 -35 4 -19 11 -37 16 -40 14 -9 13 68 -1 82 -8 8 -8 13 0 17 15 9
14 49 -1 64 -7 7 -31 12 -55 12 l-43 0 0 -84z m84 48 c9 -22 -11 -44 -40 -44
-20 0 -24 5 -24 30 0 26 3 30 29 30 17 0 31 -6 35 -16z"/>
<path d="M5960 2395 c0 -47 4 -85 9 -85 11 0 24 47 16 60 -3 4 -1 19 3 31 8
20 11 17 22 -29 11 -48 25 -71 36 -59 3 2 13 33 24 68 l18 64 1 -67 c1 -38 5
-68 11 -68 6 0 10 35 10 85 0 76 -2 85 -19 85 -15 0 -21 -13 -32 -60 -7 -33
-16 -60 -20 -60 -3 0 -14 27 -23 60 -13 47 -21 60 -37 60 -17 0 -19 -7 -19
-85z"/>
<path d="M6368 2458 c-8 -42 -3 -133 7 -138 6 -3 11 12 13 33 3 36 5 38 35 35
28 -3 31 -6 32 -37 0 -19 6 -36 13 -38 9 -4 12 17 12 81 0 70 -3 86 -15 86
-10 0 -15 -11 -15 -35 0 -32 -2 -35 -30 -35 -28 0 -30 3 -30 35 0 39 -15 48
-22 13z"/>
<path d="M6520 2395 c0 -50 4 -85 10 -85 6 0 10 35 10 85 0 50 -4 85 -10 85
-6 0 -10 -35 -10 -85z"/>
<path d="M6586 2422 c1 -92 3 -112 14 -112 6 0 10 28 11 63 l0 62 29 -62 c43
-92 60 -86 60 22 0 50 -4 85 -10 85 -6 0 -10 -30 -11 -67 l-1 -68 -31 68 c-40
87 -62 91 -61 9z"/>
<path d="M6756 2398 c-14 -45 -24 -84 -21 -86 7 -7 25 9 25 24 0 9 11 14 35
14 24 0 35 -5 35 -14 0 -17 16 -30 23 -19 10 15 -43 163 -58 163 -9 0 -23 -30
-39 -82z m58 0 c6 -25 4 -28 -19 -28 -23 0 -25 3 -20 23 4 12 9 31 12 41 6 22
16 9 27 -36z"/>
</g>
</svg>
